<?xml version="1.0" standalone="no"?>
<!DOCTYPE svg PUBLIC "-//W3C//DTD SVG 20010904//EN"
 "http://www.w3.org/TR/2001/REC-SVG-20010904/DTD/svg10.dtd">
<svg version="1.0" xmlns="http://www.w3.org/2000/svg"
 width="2016.000000pt" height="2016.000000pt" viewBox="0 0 2016.000000 2016.000000"
 preserveAspectRatio="xMidYMid meet">
<metadata>
Created by potrace 1.14, written by Peter Selinger 2001-2017
</metadata>
<g transform="translate(0.000000,2016.000000) scale(0.100000,-0.100000)"
fill="#000000" stroke="none">
<path d="M14578 12329 c-6 -4 -9 -311 -9 -888 0 -484 -4 -881 -8 -881 -8 0
-22 23 -25 40 -5 23 -78 148 -121 205 -76 102 -144 168 -237 231 -81 55 -196
114 -223 114 -7 0 -16 4 -19 8 -4 8 -41 18 -136 38 -119 25 -332 24 -465 -1
-130 -25 -299 -88 -415 -156 -106 -61 -248 -185 -326 -284 -21 -27 -41 -52
-44 -55 -15 -13 -157 -245 -150 -245 1 0 -12 -29 -28 -65 -29 -65 -78 -209
-86 -252 -3 -13 -5 -23 -6 -23 -2 0 -5 -15 -14 -60 -8 -41 -15 -75 -21 -105
-5 -24 -10 -63 -20 -145 -25 -214 -25 -565 1 -750 3 -22 7 -56 8 -75 6 -74 72
-356 89 -377 5 -7 6 -13 2 -13 -4 0 -1 -7 6 -17 8 -9 13 -19 13 -22 -3 -13 13
-51 67 -166 19 -38 36 -72 39 -75 3 -3 11 -15 18 -27 31 -56 38 -68 55 -87 9
-11 17 -23 17 -27 0 -4 6 -14 13 -21 6 -7 28 -33 48 -58 63 -78 190 -200 209
-200 5 0 10 -4 10 -8 0 -4 15 -16 33 -27 17 -10 34 -21 37 -25 3 -4 57 -32
120 -63 118 -57 260 -104 346 -113 27 -3 60 -8 74 -12 32 -9 227 -8 305 2 90
11 194 36 265 63 8 4 18 5 23 5 4 -1 7 3 7 9 0 5 4 8 9 5 5 -3 14 1 21 9 7 8
19 15 26 15 29 0 162 98 244 180 88 88 134 149 190 258 55 106 57 95 57 -213
0 -171 4 -280 10 -286 5 -5 63 -9 134 -9 133 1 131 1 229 1 60 0 202 -1 225
-2 6 -1 28 0 50 0 22 1 49 1 60 0 11 0 53 0 93 1 40 0 77 -2 82 -5 5 -3 11 -1
15 5 4 6 11 8 16 5 7 -5 264 -7 319 -3 13 1 15 266 15 2319 0 1275 -4 2321 -9
2326 -9 9 -1223 11 -1238 2z m-497 -2080 c153 -6 290 -95 382 -245 30 -50 79
-161 78 -179 0 -2 6 -23 14 -45 8 -22 12 -40 10 -40 -2 0 0 -14 5 -30 30 -103
32 -406 4 -550 -17 -93 -82 -281 -104 -300 -3 -3 -11 -18 -19 -33 -24 -46
-127 -145 -178 -170 -84 -42 -204 -70 -243 -58 -3 1 -25 3 -50 5 -67 4 -173
43 -217 79 -19 16 -85 83 -99 100 -56 68 -114 205 -138 327 -3 14 -7 35 -10
47 -26 117 -23 466 4 537 5 13 6 26 3 29 -3 3 9 51 26 106 79 252 212 385 417
417 21 3 41 8 43 10 2 2 7 2 11 -1 3 -2 31 -5 61 -6z"/>
<path d="M1709 12302 c-13 -9 -37 -32 -54 -51 -16 -20 -39 -45 -50 -56 -18
-18 -112 -137 -197 -247 -15 -20 -28 -41 -28 -47 0 -5 -4 -11 -8 -13 -11 -4
-126 -181 -181 -278 -24 -41 -49 -86 -57 -100 -40 -70 -112 -220 -166 -345
-56 -131 -165 -439 -174 -495 -3 -14 -7 -32 -10 -40 -3 -8 -8 -26 -10 -40 -3
-14 -10 -43 -16 -65 -15 -51 -13 -43 -23 -95 -5 -25 -9 -47 -10 -50 0 -3 -4
-27 -9 -53 -4 -27 -9 -58 -12 -70 -7 -39 -16 -102 -19 -142 -2 -22 -6 -53 -9
-70 -7 -41 -16 -178 -21 -304 -2 -57 -5 -104 -7 -105 -96 -59 -290 -235 -355
-323 -100 -136 -212 -352 -228 -440 -2 -13 -6 -26 -8 -30 -8 -13 -38 -164 -45
-228 -12 -112 -3 -369 13 -396 3 -3 8 -24 11 -45 10 -63 32 -141 45 -159 3 -5
10 -25 14 -42 10 -50 22 -48 50 7 30 60 105 183 115 190 4 3 11 12 16 21 25
46 158 188 249 267 50 43 200 147 228 158 11 4 18 -8 27 -48 15 -64 74 -242
100 -303 37 -86 -30 -79 879 -80 443 -1 818 3 833 8 25 8 57 44 63 71 1 6 7
25 14 41 23 58 30 80 42 125 7 25 14 50 15 55 2 6 6 24 9 40 3 17 8 42 11 57
l5 27 50 -30 c27 -16 55 -33 62 -39 7 -5 41 -31 76 -57 81 -59 214 -191 271
-268 25 -33 48 -61 53 -63 4 -2 7 -9 7 -16 0 -7 9 -21 20 -31 11 -10 20 -24
20 -32 0 -7 5 -13 10 -13 6 0 10 -4 10 -8 0 -14 72 -143 77 -139 2 3 6 11 7
19 2 7 6 20 9 28 17 40 48 130 51 147 2 10 11 52 20 94 8 42 18 107 21 144 3
38 8 72 11 77 3 4 2 8 -3 8 -4 0 -8 44 -8 98 0 247 -110 548 -281 771 -66 85
-221 227 -339 308 -29 21 -30 22 -31 120 -2 112 -12 296 -19 333 -2 14 -7 48
-10 75 -2 28 -6 61 -9 75 -2 14 -7 48 -11 75 -4 28 -9 57 -10 65 -27 130 -38
182 -47 215 -5 22 -11 47 -13 55 -24 125 -146 470 -235 665 -18 39 -31 70 -29
71 2 0 -2 8 -9 16 -7 9 -31 51 -53 94 -56 108 -150 268 -161 272 -4 2 -8 8 -8
13 0 15 -196 292 -245 345 -5 7 -44 52 -85 102 -41 49 -84 95 -95 102 -30 20
-89 21 -116 2z m123 -543 c59 -80 178 -258 178 -265 0 -2 17 -32 38 -66 33
-54 185 -349 183 -355 0 -2 9 -26 34 -88 5 -11 9 -22 10 -25 1 -3 7 -18 14
-35 7 -16 14 -34 15 -40 2 -5 8 -23 15 -39 6 -16 13 -36 15 -45 2 -9 6 -25 10
-36 19 -50 27 -74 42 -130 31 -114 44 -170 59 -240 8 -38 16 -79 18 -90 3 -11
8 -42 12 -70 4 -27 9 -61 11 -75 3 -14 6 -45 9 -70 2 -25 4 -45 5 -45 9 0 26
-434 20 -480 -2 -12 1 -87 4 -107 2 -19 25 -48 36 -48 9 0 160 -92 204 -124
40 -30 206 -193 206 -203 0 -4 10 -20 23 -34 12 -14 27 -34 33 -44 60 -108
108 -214 101 -222 -2 -2 -15 6 -30 17 -14 11 -30 20 -35 20 -5 0 -12 7 -16 15
-3 8 -12 15 -19 15 -8 0 -25 8 -38 19 -13 10 -53 34 -89 53 -68 37 -165 92
-190 108 -8 5 -33 19 -55 30 -48 24 -90 49 -128 74 -27 19 -39 17 -43 -7 -15
-77 -33 -181 -32 -186 0 -3 -1 -8 -2 -11 -1 -3 -3 -16 -5 -30 -7 -46 -24 -155
-30 -191 -2 -9 -6 -34 -10 -55 -4 -22 -9 -48 -11 -59 -2 -11 -5 -29 -6 -40 -2
-11 -6 -22 -10 -25 -9 -7 -1226 -6 -1233 1 -8 8 -42 137 -51 194 -3 17 -8 37
-11 45 -3 8 -9 33 -13 55 -4 22 -19 93 -34 158 -15 65 -28 127 -29 138 -1 10
-5 19 -9 19 -10 0 -82 -34 -88 -41 -3 -4 -34 -22 -69 -40 -172 -91 -295 -161
-299 -171 -2 -4 -10 -8 -17 -8 -8 0 -20 -6 -27 -13 -15 -15 -83 -57 -91 -57
-14 0 79 197 114 241 10 13 33 42 49 63 49 63 110 126 122 126 6 0 8 3 5 7 -8
7 114 98 223 166 l75 46 2 163 c2 173 8 301 19 383 3 28 8 61 9 75 4 36 17
122 21 145 2 11 6 34 9 50 3 17 8 44 12 60 3 17 7 39 9 50 4 24 12 58 15 65 1
3 3 10 4 15 2 6 4 12 5 15 1 3 4 16 6 30 2 14 20 77 40 140 19 63 37 123 39
133 2 9 7 23 12 30 4 6 8 17 9 23 2 13 67 178 96 244 33 74 149 303 168 330 9
14 20 32 23 40 4 8 18 33 32 55 14 22 31 50 37 63 6 12 15 22 20 22 4 0 8 6 8
14 0 8 6 21 13 28 7 7 41 53 75 102 75 104 85 116 93 108 3 -4 31 -41 61 -83z"/>
<path d="M1640 10594 c-59 -16 -120 -48 -170 -91 -40 -33 -110 -127 -110 -147
0 -8 -4 -17 -9 -20 -5 -3 -12 -23 -16 -43 -5 -21 -10 -45 -11 -53 -6 -26 -6
-128 -1 -137 3 -5 8 -22 11 -37 9 -50 27 -96 38 -96 6 0 8 -3 5 -6 -13 -13
115 -154 139 -154 7 0 14 -3 16 -7 5 -12 68 -41 118 -54 157 -42 374 28 461
149 13 18 29 39 35 46 7 7 23 44 37 82 19 55 24 85 22 149 -3 120 -31 197
-100 279 -110 130 -294 186 -465 140z"/>
<path d="M5993 11997 c-4 -7 -8 -194 -8 -417 l0 -405 -155 -2 c-85 -1 -185 -2
-222 -3 -38 0 -67 -3 -67 -7 1 -5 1 -12 0 -18 -1 -5 -1 -98 -1 -205 0 -261 0
-640 -2 -648 -3 -28 8 -30 217 -30 119 0 219 -3 223 -7 4 -3 8 -399 8 -878 1
-480 5 -883 8 -897 3 -13 8 -42 11 -63 4 -22 10 -50 15 -63 5 -13 8 -24 5 -24
-2 0 5 -26 16 -57 11 -32 22 -62 23 -68 7 -33 79 -157 119 -208 156 -195 384
-312 692 -353 164 -22 420 -21 590 1 17 2 54 7 84 10 29 4 64 11 77 16 13 4
24 7 24 5 0 -2 55 11 123 28 l122 32 -2 29 c-3 66 -8 95 -15 95 -5 0 -7 3 -6
8 2 9 -26 166 -36 200 -3 9 -8 32 -11 50 -5 33 -32 160 -41 197 -3 11 -7 31
-9 45 -1 14 -6 39 -9 55 -4 17 -15 68 -24 115 -20 92 -13 87 -92 76 -19 -3
-48 -8 -65 -12 -16 -3 -66 -6 -110 -7 -113 0 -177 29 -212 97 -13 25 -27 131
-24 186 2 43 1 67 -3 87 -3 13 -1 25 4 28 4 3 5 20 1 38 -5 18 -5 41 -1 52 4
11 4 30 -1 42 -5 12 -4 25 0 28 5 3 6 20 2 38 -5 18 -5 41 -1 51 3 10 5 32 3
50 -1 17 -2 54 -2 81 0 48 0 63 -1 123 -1 15 0 68 2 119 2 50 0 89 -4 86 -5
-2 -4 6 0 19 8 22 8 30 -1 90 -2 14 -1 32 3 38 4 6 4 31 0 56 -4 24 -4 47 0
49 5 3 5 20 1 38 -5 18 -5 41 -1 52 4 11 4 30 -1 42 -5 12 -4 25 0 28 5 3 5
20 1 39 -4 19 -5 37 -2 40 3 3 5 22 4 41 -1 32 1 35 26 36 15 0 149 1 299 1
219 0 273 3 277 14 3 7 1 16 -4 19 -6 3 -6 15 0 29 5 13 6 26 3 29 -7 7 -10
87 -3 87 7 0 3 147 -4 166 -3 7 -1 14 3 14 5 0 5 16 1 35 -4 19 -5 35 -1 35 8
0 6 68 -2 76 -3 3 -2 16 3 29 5 13 6 25 3 29 -7 7 -10 96 -3 96 7 0 3 180 -3
187 -3 3 -2 16 3 28 7 20 5 25 -12 30 -11 4 -147 7 -303 6 l-283 0 -2 57 c-1
31 -1 71 0 87 2 17 2 38 1 48 -2 37 -2 75 1 164 2 50 0 89 -4 86 -5 -2 -4 6 0
19 8 22 8 30 -1 90 -2 14 -1 32 3 38 4 6 4 31 0 56 -4 24 -4 47 0 49 5 3 5 20
1 38 -5 18 -5 41 -1 52 4 11 5 27 2 37 -4 16 -47 17 -623 17 -456 -1 -621 -4
-626 -12z"/>
<path d="M9868 11214 c-2 -1 -37 -5 -78 -8 -94 -7 -159 -14 -196 -21 -61 -11
-80 -15 -99 -20 -19 -4 -99 -24 -120 -29 -5 -2 -17 -6 -25 -9 -8 -3 -33 -11
-55 -17 -119 -36 -386 -177 -462 -245 -6 -5 -26 -21 -44 -35 -99 -75 -240
-234 -321 -361 -32 -51 -112 -198 -114 -209 0 -3 -8 -23 -18 -45 -25 -55 -76
-205 -70 -205 3 0 0 -8 -5 -18 -19 -35 -56 -246 -67 -382 -5 -55 -4 -361 1
-400 3 -19 7 -55 9 -80 2 -25 9 -72 15 -105 6 -33 14 -73 17 -90 3 -16 10 -48
16 -70 7 -22 13 -47 14 -55 3 -19 55 -161 83 -225 22 -51 41 -88 81 -159 22
-41 99 -157 109 -166 3 -3 24 -27 46 -55 72 -89 204 -212 280 -261 17 -10 36
-25 43 -32 8 -7 28 -20 45 -29 18 -9 34 -19 37 -22 3 -3 28 -17 55 -31 28 -14
52 -28 53 -32 2 -5 11 -8 21 -8 9 0 21 -4 27 -8 10 -10 193 -77 239 -88 17 -4
35 -8 40 -10 229 -65 564 -84 890 -49 22 2 49 7 61 9 12 3 39 8 60 11 21 4 57
11 79 17 22 5 47 11 55 13 8 2 42 11 75 21 33 10 62 19 65 19 3 1 14 5 25 10
11 4 47 19 80 32 50 21 174 86 244 128 164 100 349 287 467 470 51 80 114 202
114 220 0 8 5 15 10 15 6 0 10 7 10 15 0 8 4 23 9 33 10 17 45 125 43 129 -1
2 5 18 14 38 8 19 12 35 9 35 -2 0 0 11 5 25 5 14 12 36 14 48 3 12 7 33 10
47 3 14 9 45 12 70 3 25 8 54 10 65 22 108 21 497 -1 635 -4 19 -8 50 -11 69
-2 18 -6 36 -8 40 -3 3 -7 26 -11 51 -4 25 -9 48 -12 52 -2 5 -7 21 -9 36 -7
38 -52 168 -70 203 -8 16 -12 29 -9 29 7 0 -117 235 -142 269 -6 9 -35 48 -63
86 -47 63 -231 255 -245 255 -4 0 -20 13 -38 30 -18 16 -36 30 -41 30 -6 0
-19 9 -30 19 -57 52 -353 196 -446 216 -3 1 -25 7 -50 14 -25 7 -53 15 -62 17
-10 2 -28 7 -40 10 -13 3 -34 7 -48 9 -14 2 -36 6 -50 9 -28 5 -107 16 -160
22 -41 5 -369 12 -372 8z m281 -934 c82 -32 143 -81 202 -160 55 -74 124 -246
143 -360 3 -19 8 -46 11 -60 15 -70 21 -316 11 -435 -9 -101 -15 -157 -21
-176 -4 -11 -8 -31 -11 -46 -7 -40 -42 -141 -70 -202 -51 -111 -138 -209 -221
-251 -26 -13 -48 -23 -48 -22 0 1 -20 -4 -45 -12 -98 -29 -248 0 -346 66 -47
32 -124 116 -124 136 0 6 -4 12 -8 12 -12 0 -58 96 -87 183 -47 140 -62 269
-60 492 2 110 5 211 8 225 3 14 8 43 11 65 3 22 10 55 15 74 6 18 10 36 9 40
-1 3 2 15 7 26 4 11 19 49 33 85 32 85 101 189 159 239 50 45 131 87 184 96
18 3 35 7 36 9 12 12 167 -6 212 -24z"/>
<path d="M17967 11213 c-2 -1 -34 -5 -73 -7 -38 -3 -69 -5 -69 -6 0 -1 -16 -3
-35 -5 -39 -4 -80 -11 -175 -30 -45 -9 -54 -12 -57 -15 -2 -1 -11 -3 -20 -6
-10 -2 -26 -6 -35 -8 -10 -3 -18 -5 -18 -6 0 -1 -7 -3 -15 -5 -54 -11 -321
-125 -340 -145 -10 -10 -45 -31 -62 -36 -10 -4 -18 -10 -18 -14 0 -4 -10 -11
-23 -17 -54 -25 -234 -185 -314 -281 -122 -143 -233 -343 -298 -537 -22 -65
-65 -235 -70 -279 -3 -23 -7 -52 -10 -65 -12 -63 -19 -192 -18 -346 0 -186 5
-254 28 -390 9 -48 6 -38 40 -175 16 -64 59 -190 83 -240 9 -19 17 -41 18 -49
2 -8 9 -18 16 -22 7 -5 9 -9 4 -9 -5 0 -1 -9 8 -19 10 -11 18 -26 20 -34 1 -8
26 -52 56 -97 30 -46 60 -90 65 -98 27 -41 59 -76 168 -184 65 -65 124 -118
132 -118 7 0 15 -3 17 -7 7 -16 216 -153 233 -153 3 0 33 -13 67 -30 34 -16
69 -30 78 -30 9 0 20 -4 26 -9 13 -14 231 -75 309 -87 11 -2 35 -6 53 -9 71
-12 101 -15 192 -21 162 -12 343 -8 515 11 51 6 168 29 258 51 4 1 9 3 12 4 3
1 8 3 13 4 4 1 23 6 42 10 46 11 215 79 276 112 66 35 138 77 144 84 3 3 25
19 50 35 144 97 292 248 397 408 92 140 206 400 230 527 8 39 11 55 13 55 1 0
3 12 5 28 2 15 8 51 14 80 20 94 24 160 24 377 1 214 -4 290 -23 385 -5 28
-12 66 -15 85 -18 114 -95 330 -162 459 -93 179 -237 363 -370 471 -107 89
-250 181 -346 224 -150 68 -181 79 -317 115 -93 24 -167 37 -330 57 -41 5
-389 12 -393 7z m263 -917 c115 -27 233 -133 299 -268 42 -88 74 -168 65 -168
-2 0 0 -8 5 -17 5 -10 12 -34 15 -53 3 -19 8 -46 11 -60 19 -90 25 -392 12
-523 -9 -80 -31 -190 -47 -232 -6 -17 -12 -32 -12 -35 -2 -26 -70 -170 -79
-170 -5 0 -9 -6 -9 -13 0 -38 -166 -178 -227 -192 -10 -2 -34 -8 -53 -13 -103
-24 -268 13 -340 78 -14 12 -32 27 -40 34 -35 26 -91 106 -125 181 -48 103
-52 114 -60 150 -3 17 -10 50 -16 75 -25 116 -33 205 -32 350 1 129 15 325 23
325 2 0 9 32 14 65 2 14 9 37 15 53 6 15 9 27 6 27 -6 0 21 63 57 135 39 77
95 147 163 203 15 12 116 59 150 68 36 11 158 11 205 0z"/>
<path d="M1090 7903 c-39 -13 -97 -47 -118 -71 -56 -65 -56 -65 -55 -461 1
-385 3 -415 21 -433 7 -7 12 -17 12 -23 0 -19 62 -70 105 -86 62 -24 116 -23
171 2 106 50 133 102 137 267 1 39 -1 72 -5 72 -4 0 -3 13 2 30 5 18 5 32 -1
36 -5 3 -6 11 -2 17 9 15 10 157 1 157 -4 0 -3 13 2 30 5 18 5 32 -1 36 -6 3
-6 11 -2 17 10 15 10 158 -1 175 -4 6 -3 19 2 29 12 20 -22 108 -55 140 -47
48 -159 82 -213 66z"/>
<path d="M1702 7899 c-24 -5 -59 -18 -78 -30 -38 -23 -85 -89 -93 -129 -2 -14
-4 -248 -5 -520 0 -545 -2 -524 63 -593 62 -68 185 -85 268 -37 40 22 91 82
102 119 3 9 6 237 8 506 4 553 4 554 -62 620 -39 38 -119 75 -133 61 -3 -3
-10 -2 -16 2 -6 5 -30 5 -54 1z"/>
<path d="M2335 7900 c-94 -20 -163 -94 -170 -184 -2 -22 -5 -43 -6 -46 -1 -3
0 -9 1 -15 3 -11 2 -227 -1 -241 -1 -5 -1 -13 1 -19 1 -5 1 -46 0 -90 -1 -121
-1 -123 1 -230 1 -55 5 -104 10 -110 4 -5 8 -14 8 -20 2 -25 60 -87 100 -107
65 -32 127 -34 188 -8 64 27 99 63 122 126 16 44 18 84 16 404 -1 195 -5 372
-9 392 -9 40 -69 118 -92 118 -8 0 -14 4 -14 9 0 17 -105 31 -155 21z"/>
</g>
</svg>
